<svg width="106" height="107" xmlns="http://www.w3.org/2000/svg" xmlns:xlink="http://www.w3.org/1999/xlink" xml:space="preserve" overflow="hidden"><defs><filter id="fx0" x="-10%" y="-10%" width="120%" height="120%" filterUnits="userSpaceOnUse" primitiveUnits="userSpaceOnUse"><feComponentTransfer color-interpolation-filters="sRGB"><feFuncR type="discrete" tableValues="0 0"/><feFuncG type="discrete" tableValues="0 0"/><feFuncB type="discrete" tableValues="0 0"/><feFuncA type="linear" slope="0.4" intercept="0"/></feComponentTransfer><feGaussianBlur stdDeviation="1.77778 1.77778"/></filter><clipPath id="clip1"><rect x="35" y="152" width="106" height="107"/></clipPath><clipPath id="clip2"><rect x="13" y="17" width="85" height="85"/></clipPath><clipPath id="clip3"><rect x="0" y="0" width="108" height="109"/></clipPath><clipPath id="clip4"><rect x="6" y="6" width="95" height="96"/></clipPath><clipPath id="clip5"><rect x="6" y="6" width="95" height="96"/></clipPath><clipPath id="clip6"><rect x="6" y="6" width="95" height="96"/></clipPath><clipPath id="clip7"><rect x="38" y="155" width="94" height="95"/></clipPath><clipPath id="clip8"><rect x="38" y="155" width="94" height="95"/></clipPath><clipPath id="clip9"><rect x="38" y="155" width="94" height="95"/></clipPath></defs><g clip-path="url(#clip1)" transform="translate(-35 -152)"><g clip-path="url(#clip2)" filter="url(#fx0)" transform="translate(34 151)"><g clip-path="url(#clip3)"><g clip-path="url(#clip4)"><g clip-path="url(#clip5)"><g clip-path="url(#clip6)"><path d="M31.2207 32.1274 72.9039 32.1274 72.9039 27.5802C72.9039 25.7415 71.4134 24.251 69.5747 24.251L44.6275 24.251 35.4791 18.1802C34.9321 17.826 34.3002 17.6248 33.6491 17.5976L18.0167 17.5976C16.178 17.5976 14.6875 19.0881 14.6875 20.9268L14.6875 62.4375 14.7208 62.4375 25.7364 35.6759C26.7206 33.5287 28.8588 32.1453 31.2207 32.1274Z" stroke="#4472C4" stroke-width="0.979167" fill="#2F5597" transform="matrix(1 0 0 1.01064 6.82843 6.82843)"/><path d="M55.7724 49.8856C61.0836 44.5771 69.2928 43.4849 75.8071 47.2203L79.2244 39.8766C79.4478 39.4121 79.5618 38.9026 79.5573 38.3872 79.5669 36.6775 78.2798 35.2385 76.5796 35.0581L31.2354 35.0581C30.0174 35.0663 28.9146 35.7796 28.4076 36.8872L17.1824 64.1726 51.1027 64.1726C50.2969 58.9385 52.0308 53.6334 55.7724 49.8856Z" stroke="#4472C4" stroke-width="0.979167" fill="#2F5597" transform="matrix(1 0 0 1.01064 6.82843 6.82843)"/><path d="M62.0038 56.117C59.8966 58.2266 59.1711 61.3502 60.1326 64.1726L67.914 64.1726 72.0618 55.2622C68.9486 53.0603 64.7023 53.4199 62.0038 56.1141Z" stroke="#4472C4" stroke-width="0.979167" fill="#2F5597" transform="matrix(1 0 0 1.01064 6.82843 6.82843)"/><path d="M77.2357 51.9624C71.8885 46.6075 63.2125 46.6011 57.8575 51.9484 52.956 56.8428 52.478 64.6254 56.7437 70.0829L54.5964 72.2302C53.4193 71.9114 52.1617 72.2452 51.2976 73.1056L45.0661 79.337C43.7277 80.6754 43.7277 82.8454 45.0661 84.1839 46.4046 85.5223 48.5746 85.5223 49.913 84.1839L56.1444 77.9524C57.0048 77.0883 57.3386 75.8307 57.0198 74.6536L59.174 72.4995C65.1571 77.1323 73.7631 76.0377 78.3959 70.0546 82.6246 64.5935 82.1273 56.8387 77.2357 51.9624ZM75.1589 69.2721C70.9527 73.4785 64.133 73.4786 59.9267 69.2725 55.7203 65.0663 55.7201 58.2466 59.9263 54.0402 64.1325 49.8338 70.9522 49.8337 75.1586 54.0399 75.1587 54.04 75.1588 54.0401 75.1589 54.0402 79.3584 58.2492 79.3584 65.0632 75.1589 69.2721Z" stroke="#4472C4" stroke-width="0.979167" fill="#2F5597" transform="matrix(1 0 0 1.01064 6.82843 6.82843)"/></g></g></g></g></g><g clip-path="url(#clip7)"><g clip-path="url(#clip8)"><g clip-path="url(#clip9)"><path d="M31.2207 32.1274 72.9039 32.1274 72.9039 27.5802C72.9039 25.7415 71.4134 24.251 69.5747 24.251L44.6275 24.251 35.4791 18.1802C34.9321 17.826 34.3002 17.6248 33.6491 17.5976L18.0167 17.5976C16.178 17.5976 14.6875 19.0881 14.6875 20.9268L14.6875 62.4375 14.7208 62.4375 25.7364 35.6759C26.7206 33.5287 28.8588 32.1453 31.2207 32.1274Z" stroke="#4472C4" stroke-width="0.979167" fill="#2F5597" transform="matrix(1 0 0 1.01064 38 155)"/><path d="M55.7724 49.8856C61.0836 44.5771 69.2928 43.4849 75.8071 47.2203L79.2244 39.8766C79.4478 39.4121 79.5618 38.9026 79.5573 38.3872 79.5669 36.6775 78.2798 35.2385 76.5796 35.0581L31.2354 35.0581C30.0174 35.0663 28.9146 35.7796 28.4076 36.8872L17.1824 64.1726 51.1027 64.1726C50.2969 58.9385 52.0308 53.6334 55.7724 49.8856Z" stroke="#4472C4" stroke-width="0.979167" fill="#2F5597" transform="matrix(1 0 0 1.01064 38 155)"/><path d="M62.0038 56.117C59.8966 58.2266 59.1711 61.3502 60.1326 64.1726L67.914 64.1726 72.0618 55.2622C68.9486 53.0603 64.7023 53.4199 62.0038 56.1141Z" stroke="#4472C4" stroke-width="0.979167" fill="#2F5597" transform="matrix(1 0 0 1.01064 38 155)"/><path d="M77.2357 51.9624C71.8885 46.6075 63.2125 46.6011 57.8575 51.9484 52.956 56.8428 52.478 64.6254 56.7437 70.0829L54.5964 72.2302C53.4193 71.9114 52.1617 72.2452 51.2976 73.1056L45.0661 79.337C43.7277 80.6754 43.7277 82.8454 45.0661 84.1839 46.4046 85.5223 48.5746 85.5223 49.913 84.1839L56.1444 77.9524C57.0048 77.0883 57.3386 75.8307 57.0198 74.6536L59.174 72.4995C65.1571 77.1323 73.7631 76.0377 78.3959 70.0546 82.6246 64.5935 82.1273 56.8387 77.2357 51.9624ZM75.1589 69.2721C70.9527 73.4785 64.133 73.4786 59.9267 69.2725 55.7203 65.0663 55.7201 58.2466 59.9263 54.0402 64.1325 49.8338 70.9522 49.8337 75.1586 54.0399 75.1587 54.04 75.1588 54.0401 75.1589 54.0402 79.3584 58.2492 79.3584 65.0632 75.1589 69.2721Z" stroke="#4472C4" stroke-width="0.979167" fill="#2F5597" transform="matrix(1 0 0 1.01064 38 155)"/></g></g></g></g></svg>