<svg width="108" height="108" xmlns="http://www.w3.org/2000/svg" xmlns:xlink="http://www.w3.org/1999/xlink" xml:space="preserve" overflow="hidden"><defs><filter id="fx0" x="-10%" y="-10%" width="120%" height="120%" filterUnits="userSpaceOnUse" primitiveUnits="userSpaceOnUse"><feComponentTransfer color-interpolation-filters="sRGB"><feFuncR type="discrete" tableValues="0 0"/><feFuncG type="discrete" tableValues="0 0"/><feFuncB type="discrete" tableValues="0 0"/><feFuncA type="linear" slope="0.4" intercept="0"/></feComponentTransfer><feGaussianBlur stdDeviation="1.77778 1.77778"/></filter><clipPath id="clip1"><rect x="452" y="115" width="108" height="108"/></clipPath><clipPath id="clip2"><rect x="9" y="9" width="93" height="89"/></clipPath><clipPath id="clip3"><rect x="0" y="0" width="110" height="110"/></clipPath><clipPath id="clip4"><rect x="6" y="6" width="97" height="97"/></clipPath><clipPath id="clip5"><rect x="6" y="6" width="97" height="97"/></clipPath><clipPath id="clip6"><rect x="6" y="6" width="97" height="97"/></clipPath><clipPath id="clip7"><rect x="455" y="118" width="96" height="96"/></clipPath><clipPath id="clip8"><rect x="455" y="118" width="96" height="96"/></clipPath><clipPath id="clip9"><rect x="455" y="118" width="96" height="96"/></clipPath></defs><g clip-path="url(#clip1)" transform="translate(-452 -115)"><g clip-path="url(#clip2)" filter="url(#fx0)" transform="translate(451 114)"><g clip-path="url(#clip3)"><g clip-path="url(#clip4)"><g clip-path="url(#clip5)"><g clip-path="url(#clip6)"><path d="M63.8284 85.8284C62.1284 85.8284 60.8284 84.5284 60.8284 82.8284 60.8284 81.1284 62.1284 79.8284 63.8284 79.8284 65.5284 79.8284 66.8284 81.1284 66.8284 82.8284 66.8284 84.5284 65.5284 85.8284 63.8284 85.8284ZM53.8284 85.8284C52.1284 85.8284 50.8284 84.5284 50.8284 82.8284 50.8284 81.1284 52.1284 79.8284 53.8284 79.8284 55.5284 79.8284 56.8284 81.1284 56.8284 82.8284 56.8284 84.5284 55.5284 85.8284 53.8284 85.8284ZM43.8284 85.8284C42.1284 85.8284 40.8284 84.5284 40.8284 82.8284 40.8284 81.1284 42.1284 79.8284 43.8284 79.8284 45.5284 79.8284 46.8284 81.1284 46.8284 82.8284 46.8284 84.5284 45.5284 85.8284 43.8284 85.8284ZM33.8284 85.8284C32.1284 85.8284 30.8284 84.5284 30.8284 82.8284 30.8284 81.1284 32.1284 79.8284 33.8284 79.8284 35.5284 79.8284 36.8284 81.1284 36.8284 82.8284 36.8284 84.5284 35.5284 85.8284 33.8284 85.8284ZM23.8284 85.8284C22.1284 85.8284 20.8284 84.5284 20.8284 82.8284 20.8284 81.1284 22.1284 79.8284 23.8284 79.8284 25.5284 79.8284 26.8284 81.1284 26.8284 82.8284 26.8284 84.5284 25.5284 85.8284 23.8284 85.8284ZM63.8284 75.8284 23.8284 75.8284C19.9284 75.8284 16.8284 78.9284 16.8284 82.8284 16.8284 86.7284 19.9284 89.8284 23.8284 89.8284L63.8284 89.8284C67.7284 89.8284 70.8284 86.7284 70.8284 82.8284 70.8284 78.9284 67.7284 75.8284 63.8284 75.8284Z" fill="#2F5597"/><path d="M48.8284 45.8284 63.3284 45.8284 64.6284 55.8284 48.8284 55.8284 48.8284 45.8284ZM84.5284 42.6284 60.2284 18.4284C59.4284 17.6284 58.2284 17.6284 57.4284 18.4284L19.4284 56.4284C19.3284 56.5284 19.2284 56.6284 19.1284 56.7284L19.0284 56.8284C19.0284 56.9284 18.9284 56.9284 18.9284 57.0284 18.9284 57.1284 18.9284 57.1284 18.8284 57.2284 18.8284 57.3284 18.8284 57.3284 18.7284 57.4284 18.7284 57.5284 18.7284 57.7284 18.7284 57.8284L18.7284 69.8284C18.7284 70.9284 19.6284 71.8284 20.7284 71.8284L66.1284 71.8284 66.8284 71.8284 66.8284 71.7284C68.9284 71.4284 70.5284 69.4284 70.2284 67.2284L67.3284 45.2284C67.0284 43.2284 65.3284 41.7284 63.3284 41.7284L48.8284 41.7284C46.6284 41.7284 44.8284 43.5284 44.8284 45.7284L44.8284 55.7284 25.6284 55.7284 58.8284 22.6284 81.2284 45.0284 76.8284 67.3284C83.8284 68.7284 90.7284 64.1284 92.1284 57.1284 93.2284 51.0284 90.0284 45.0284 84.5284 42.6284Z" fill="#2F5597"/></g></g></g></g></g><g clip-path="url(#clip7)"><g clip-path="url(#clip8)"><g clip-path="url(#clip9)"><path d="M512 197C510.3 197 509 195.7 509 194 509 192.3 510.3 191 512 191 513.7 191 515 192.3 515 194 515 195.7 513.7 197 512 197ZM502 197C500.3 197 499 195.7 499 194 499 192.3 500.3 191 502 191 503.7 191 505 192.3 505 194 505 195.7 503.7 197 502 197ZM492 197C490.3 197 489 195.7 489 194 489 192.3 490.3 191 492 191 493.7 191 495 192.3 495 194 495 195.7 493.7 197 492 197ZM482 197C480.3 197 479 195.7 479 194 479 192.3 480.3 191 482 191 483.7 191 485 192.3 485 194 485 195.7 483.7 197 482 197ZM472 197C470.3 197 469 195.7 469 194 469 192.3 470.3 191 472 191 473.7 191 475 192.3 475 194 475 195.7 473.7 197 472 197ZM512 187 472 187C468.1 187 465 190.1 465 194 465 197.9 468.1 201 472 201L512 201C515.9 201 519 197.9 519 194 519 190.1 515.9 187 512 187Z" fill="#2F5597"/><path d="M497 157 511.5 157 512.8 167 497 167 497 157ZM532.7 153.8 508.4 129.6C507.6 128.8 506.4 128.8 505.6 129.6L467.6 167.6C467.5 167.7 467.4 167.8 467.3 167.9L467.2 168C467.2 168.1 467.1 168.1 467.1 168.2 467.1 168.3 467.1 168.3 467 168.4 467 168.5 467 168.5 466.9 168.6 466.9 168.7 466.9 168.9 466.9 169L466.9 181C466.9 182.1 467.8 183 468.9 183L514.3 183 515 183 515 182.9C517.1 182.6 518.7 180.6 518.4 178.4L515.5 156.4C515.2 154.4 513.5 152.9 511.5 152.9L497 152.9C494.8 152.9 493 154.7 493 156.9L493 166.9 473.8 166.9 507 133.8 529.4 156.2 525 178.5C532 179.9 538.9 175.3 540.3 168.3 541.4 162.2 538.2 156.2 532.7 153.8Z" fill="#2F5597"/></g></g></g></g></svg>