<svg width="108" height="108" xmlns="http://www.w3.org/2000/svg" xmlns:xlink="http://www.w3.org/1999/xlink" xml:space="preserve" overflow="hidden"><defs><filter id="fx0" x="-10%" y="-10%" width="120%" height="120%" filterUnits="userSpaceOnUse" primitiveUnits="userSpaceOnUse"><feComponentTransfer color-interpolation-filters="sRGB"><feFuncR type="discrete" tableValues="0 0"/><feFuncG type="discrete" tableValues="0 0"/><feFuncB type="discrete" tableValues="0 0"/><feFuncA type="linear" slope="0.4" intercept="0"/></feComponentTransfer><feGaussianBlur stdDeviation="1.77778 1.77778"/></filter><clipPath id="clip1"><rect x="395" y="461" width="108" height="108"/></clipPath><clipPath id="clip2"><rect x="5" y="13" width="101" height="85"/></clipPath><clipPath id="clip3"><rect x="0" y="0" width="110" height="110"/></clipPath><clipPath id="clip4"><rect x="6" y="6" width="97" height="97"/></clipPath><clipPath id="clip5"><rect x="6" y="6" width="97" height="97"/></clipPath><clipPath id="clip6"><rect x="6" y="6" width="97" height="97"/></clipPath><clipPath id="clip7"><rect x="398" y="464" width="96" height="96"/></clipPath><clipPath id="clip8"><rect x="398" y="464" width="96" height="96"/></clipPath><clipPath id="clip9"><rect x="398" y="464" width="96" height="96"/></clipPath></defs><g clip-path="url(#clip1)" transform="translate(-395 -461)"><g clip-path="url(#clip2)" filter="url(#fx0)" transform="translate(394 460)"><g clip-path="url(#clip3)"><g clip-path="url(#clip4)"><g clip-path="url(#clip5)"><g clip-path="url(#clip6)"><path d="M83.5284 20.8284 26.3284 20.8284C18.4284 20.8284 12.0284 27.2284 12.0284 35.1284L12.0284 74.6284C12.0284 82.5284 18.4284 88.9284 26.3284 88.9284L83.5284 88.9284C91.4284 88.8284 97.8284 82.4284 97.8284 74.5284L97.8284 35.1284C97.8284 27.2284 91.4284 20.8284 83.5284 20.8284ZM91.8284 35.1284 91.8284 51.1284 49.4284 51.1284 49.4284 26.8284 83.5284 26.8284C88.1284 26.8284 91.8284 30.5284 91.8284 35.1284ZM18.1284 74.5284 18.1284 35.1284C18.1284 30.5284 21.8284 26.8284 26.4284 26.8284L45.5284 26.8284 45.5284 82.8284 26.3284 82.8284C21.8284 82.8284 18.1284 79.1284 18.1284 74.5284ZM83.5284 82.8284 49.4284 82.8284 49.4284 55.0284 91.8284 55.0284 91.8284 74.5284C91.8284 79.1284 88.1284 82.8284 83.5284 82.8284Z" fill="#2F5597"/><path d="M57.4284 57.8284C55.8284 58.0284 54.6284 59.5284 54.8284 61.1284 54.8284 61.1284 54.8284 61.1284 54.8284 61.1284 55.9284 70.3284 54.6284 76.0284 54.6284 76.1284 54.2284 77.7284 55.2284 79.3284 56.9284 79.7284 58.5284 80.1284 60.1284 79.1284 60.5284 77.5284 60.6284 77.2284 62.1284 70.8284 60.9284 60.4284 60.5284 58.8284 59.1284 57.6284 57.4284 57.8284Z" fill="#2F5597"/><path d="M69.8284 57.8284C68.2284 58.0284 67.0284 59.5284 67.2284 61.1284 67.2284 61.1284 67.2284 61.1284 67.2284 61.1284 68.3284 70.3284 67.0284 76.0284 67.0284 76.1284 66.6284 77.7284 67.6284 79.3284 69.3284 79.7284 70.9284 80.1284 72.5284 79.1284 72.9284 77.5284 73.0284 77.2284 74.5284 70.8284 73.3284 60.4284 72.9284 58.8284 71.5284 57.6284 69.8284 57.8284Z" fill="#2F5597"/><path d="M82.2284 57.8284C80.6284 58.0284 79.4284 59.5284 79.6284 61.1284 79.6284 61.1284 79.6284 61.1284 79.6284 61.1284 80.7284 70.3284 79.4284 76.0284 79.4284 76.1284 79.0284 77.7284 80.0284 79.3284 81.7284 79.7284 83.3284 80.1284 84.9284 79.1284 85.3284 77.5284 85.4284 77.2284 86.9284 70.8284 85.7284 60.4284 85.3284 58.8284 83.9284 57.6284 82.2284 57.8284Z" fill="#2F5597"/><path d="M32.4284 29.8284C17.3284 44.0284 24.0284 59.5284 28.9284 67.0284 24.2284 72.8284 23.3284 80.8284 23.3284 80.8284L23.3284 80.8284 32.4284 74.3284 41.5284 80.8284 41.5284 80.8284C41.5284 80.8284 40.6284 72.8284 35.9284 67.0284 40.8284 59.5284 47.5284 44.0284 32.4284 29.8284ZM25.5284 45.4284C25.3284 44.9284 25.5284 44.3284 26.0284 44.1284 26.0284 44.1284 26.0284 44.1284 26.0284 44.1284L35.7284 39.7284C36.2284 39.5284 36.8284 39.7284 37.0284 40.2284 37.2284 40.7284 37.0284 41.3284 36.5284 41.5284L26.8284 45.9284C26.3284 46.1284 25.7284 45.9284 25.5284 45.4284L25.5284 45.4284ZM26.5284 52.7284C26.3284 52.2284 26.5284 51.6284 27.0284 51.4284 27.0284 51.4284 27.0284 51.4284 27.0284 51.4284L36.7284 47.0284C37.2284 46.8284 37.8284 47.0284 38.0284 47.5284 38.2284 48.0284 38.0284 48.6284 37.5284 48.8284L27.8284 53.2284C27.3284 53.4284 26.7284 53.2284 26.5284 52.7284L26.5284 52.7284ZM28.4284 60.6284C27.8284 60.6284 27.4284 60.2284 27.4284 59.6284 27.4284 59.2284 27.6284 58.9284 28.0284 58.7284L37.7284 54.3284C38.2284 54.1284 38.8284 54.3284 39.0284 54.8284 39.2284 55.3284 39.0284 55.9284 38.5284 56.1284 38.5284 56.1284 38.5284 56.1284 38.5284 56.1284L28.8284 60.5284C28.7284 60.5284 28.5284 60.6284 28.4284 60.6284Z" fill="#2F5597"/><path d="M54.8284 48.5284 56.5284 46.8284C53.1284 43.5284 53.1284 38.1284 56.4284 34.7284 59.7284 31.3284 65.1284 31.3284 68.5284 34.6284 68.5284 34.6284 68.6284 34.7284 68.6284 34.7284L70.3284 33.0284C66.0284 28.7284 59.0284 28.8284 54.7284 33.1284 50.5284 37.3284 50.5284 44.2284 54.8284 48.5284Z" fill="#2F5597"/><path d="M57.9284 36.1284C55.3284 38.7284 55.4284 42.8284 57.9284 45.4284 57.9284 45.4284 57.9284 45.4284 57.9284 45.4284L67.2284 36.1284C64.6284 33.5284 60.5284 33.5284 57.9284 36.1284 57.9284 36.0284 57.9284 36.1284 57.9284 36.1284Z" fill="#2F5597"/><path d="M75.5284 46.7284C72.1284 43.4284 72.1284 38.0284 75.4284 34.6284 78.7284 31.2284 84.1284 31.2284 87.5284 34.5284 87.5284 34.5284 87.6284 34.6284 87.6284 34.6284L89.3284 32.9284C85.0284 28.6284 78.0284 28.7284 73.7284 33.0284 69.5284 37.3284 69.5284 44.2284 73.7284 48.5284L75.5284 46.7284Z" fill="#2F5597"/><path d="M76.9284 36.1284C74.3284 38.7284 74.4284 42.8284 76.9284 45.4284 76.9284 45.4284 76.9284 45.4284 76.9284 45.4284L86.2284 36.1284C83.6284 33.5284 79.5284 33.5284 76.9284 36.1284 76.9284 36.0284 76.9284 36.1284 76.9284 36.1284Z" fill="#2F5597"/></g></g></g></g></g><g clip-path="url(#clip7)"><g clip-path="url(#clip8)"><g clip-path="url(#clip9)"><path d="M474.7 478 417.5 478C409.6 478 403.2 484.4 403.2 492.3L403.2 531.8C403.2 539.7 409.6 546.1 417.5 546.1L474.7 546.1C482.6 546 489 539.6 489 531.7L489 492.3C489 484.4 482.6 478 474.7 478ZM483 492.3 483 508.3 440.6 508.3 440.6 484 474.7 484C479.3 484 483 487.7 483 492.3ZM409.3 531.7 409.3 492.3C409.3 487.7 413 484 417.6 484L436.7 484 436.7 540 417.5 540C413 540 409.3 536.3 409.3 531.7ZM474.7 540 440.6 540 440.6 512.2 483 512.2 483 531.7C483 536.3 479.3 540 474.7 540Z" fill="#2F5597"/><path d="M448.6 515C447 515.2 445.8 516.7 446 518.3 446 518.3 446 518.3 446 518.3 447.1 527.5 445.8 533.2 445.8 533.3 445.4 534.9 446.4 536.5 448.1 536.9 449.7 537.3 451.3 536.3 451.7 534.7 451.8 534.4 453.3 528 452.1 517.6 451.7 516 450.3 514.8 448.6 515Z" fill="#2F5597"/><path d="M461 515C459.4 515.2 458.2 516.7 458.4 518.3 458.4 518.3 458.4 518.3 458.4 518.3 459.5 527.5 458.2 533.2 458.2 533.3 457.8 534.9 458.8 536.5 460.5 536.9 462.1 537.3 463.7 536.3 464.1 534.7 464.2 534.4 465.7 528 464.5 517.6 464.1 516 462.7 514.8 461 515Z" fill="#2F5597"/><path d="M473.4 515C471.8 515.2 470.6 516.7 470.8 518.3 470.8 518.3 470.8 518.3 470.8 518.3 471.9 527.5 470.6 533.2 470.6 533.3 470.2 534.9 471.2 536.5 472.9 536.9 474.5 537.3 476.1 536.3 476.5 534.7 476.6 534.4 478.1 528 476.9 517.6 476.5 516 475.1 514.8 473.4 515Z" fill="#2F5597"/><path d="M423.6 487C408.5 501.2 415.2 516.7 420.1 524.2 415.4 530 414.5 538 414.5 538L414.5 538 423.6 531.5 432.7 538 432.7 538C432.7 538 431.8 530 427.1 524.2 432 516.7 438.7 501.2 423.6 487ZM416.7 502.6C416.5 502.1 416.7 501.5 417.2 501.3 417.2 501.3 417.2 501.3 417.2 501.3L426.9 496.9C427.4 496.7 428 496.9 428.2 497.4 428.4 497.9 428.2 498.5 427.7 498.7L418 503.1C417.5 503.3 416.9 503.1 416.7 502.6L416.7 502.6ZM417.7 509.9C417.5 509.4 417.7 508.8 418.2 508.6 418.2 508.6 418.2 508.6 418.2 508.6L427.9 504.2C428.4 504 429 504.2 429.2 504.7 429.4 505.2 429.2 505.8 428.7 506L419 510.4C418.5 510.6 417.9 510.4 417.7 509.9L417.7 509.9ZM419.6 517.8C419 517.8 418.6 517.4 418.6 516.8 418.6 516.4 418.8 516.1 419.2 515.9L428.9 511.5C429.4 511.3 430 511.5 430.2 512 430.4 512.5 430.2 513.1 429.7 513.3 429.7 513.3 429.7 513.3 429.7 513.3L420 517.7C419.9 517.7 419.7 517.8 419.6 517.8Z" fill="#2F5597"/><path d="M446 505.7 447.7 504C444.3 500.7 444.3 495.3 447.6 491.9 450.9 488.5 456.3 488.5 459.7 491.8 459.7 491.8 459.8 491.9 459.8 491.9L461.5 490.2C457.2 485.9 450.2 486 445.9 490.3 441.7 494.5 441.7 501.4 446 505.7Z" fill="#2F5597"/><path d="M449.1 493.3C446.5 495.9 446.6 500 449.1 502.6 449.1 502.6 449.1 502.6 449.1 502.6L458.4 493.3C455.8 490.7 451.7 490.7 449.1 493.3 449.1 493.2 449.1 493.3 449.1 493.3Z" fill="#2F5597"/><path d="M466.7 503.9C463.3 500.6 463.3 495.2 466.6 491.8 469.9 488.4 475.3 488.4 478.7 491.7 478.7 491.7 478.8 491.8 478.8 491.8L480.5 490.1C476.2 485.8 469.2 485.9 464.9 490.2 460.7 494.5 460.7 501.4 464.9 505.7L466.7 503.9Z" fill="#2F5597"/><path d="M468.1 493.3C465.5 495.9 465.6 500 468.1 502.6 468.1 502.6 468.1 502.6 468.1 502.6L477.4 493.3C474.8 490.7 470.7 490.7 468.1 493.3 468.1 493.2 468.1 493.3 468.1 493.3Z" fill="#2F5597"/></g></g></g></g></svg>