<svg width="108" height="108" xmlns="http://www.w3.org/2000/svg" xmlns:xlink="http://www.w3.org/1999/xlink" xml:space="preserve" overflow="hidden"><defs><filter id="fx0" x="-10%" y="-10%" width="120%" height="120%" filterUnits="userSpaceOnUse" primitiveUnits="userSpaceOnUse"><feComponentTransfer color-interpolation-filters="sRGB"><feFuncR type="discrete" tableValues="0 0"/><feFuncG type="discrete" tableValues="0 0"/><feFuncB type="discrete" tableValues="0 0"/><feFuncA type="linear" slope="0.4" intercept="0"/></feComponentTransfer><feGaussianBlur stdDeviation="1.77778 1.77778"/></filter><clipPath id="clip1"><rect x="100" y="462" width="108" height="108"/></clipPath><clipPath id="clip2"><rect x="5" y="11" width="99" height="89"/></clipPath><clipPath id="clip3"><rect x="0" y="0" width="110" height="110"/></clipPath><clipPath id="clip4"><rect x="6" y="6" width="97" height="97"/></clipPath><clipPath id="clip5"><rect x="6" y="6" width="97" height="97"/></clipPath><clipPath id="clip6"><rect x="6" y="6" width="97" height="97"/></clipPath><clipPath id="clip7"><rect x="103" y="465" width="96" height="96"/></clipPath><clipPath id="clip8"><rect x="103" y="465" width="96" height="96"/></clipPath><clipPath id="clip9"><rect x="103" y="465" width="96" height="96"/></clipPath></defs><g clip-path="url(#clip1)" transform="translate(-100 -462)"><g clip-path="url(#clip2)" filter="url(#fx0)" transform="translate(99 461)"><g clip-path="url(#clip3)"><g clip-path="url(#clip4)"><g clip-path="url(#clip5)"><g clip-path="url(#clip6)"><path d="M54.8284 18.8284 54.8284 18.8284 12.8284 58.8284 17.3284 62.6284 54.8284 27.0284 54.8284 27.0284 92.3284 62.6284 96.8284 58.8284Z" fill="#2F5597"/><path d="M24.8284 61.1284 24.8284 90.8284 48.8284 90.8284 48.8284 65.8284 60.8284 65.8284 60.8284 90.8284 84.8284 90.8284 84.8284 61.1284 54.8284 32.6284 24.8284 61.1284Z" fill="#2F5597"/></g></g></g></g></g><g clip-path="url(#clip7)"><g clip-path="url(#clip8)"><g clip-path="url(#clip9)"><path d="M151 477 151 477 109 517 113.5 520.8 151 485.2 151 485.2 188.5 520.8 193 517Z" fill="#2F5597"/><path d="M121 519.3 121 549 145 549 145 524 157 524 157 549 181 549 181 519.3 151 490.8 121 519.3Z" fill="#2F5597"/></g></g></g></g></svg>