<svg width="108" height="108" xmlns="http://www.w3.org/2000/svg" xmlns:xlink="http://www.w3.org/1999/xlink" xml:space="preserve" overflow="hidden"><defs><filter id="fx0" x="-10%" y="-10%" width="120%" height="120%" filterUnits="userSpaceOnUse" primitiveUnits="userSpaceOnUse"><feComponentTransfer color-interpolation-filters="sRGB"><feFuncR type="discrete" tableValues="0 0"/><feFuncG type="discrete" tableValues="0 0"/><feFuncB type="discrete" tableValues="0 0"/><feFuncA type="linear" slope="0.4" intercept="0"/></feComponentTransfer><feGaussianBlur stdDeviation="1.77778 1.77778"/></filter><clipPath id="clip1"><rect x="454" y="281" width="108" height="108"/></clipPath><clipPath id="clip2"><rect x="13" y="13" width="85" height="85"/></clipPath><clipPath id="clip3"><rect x="0" y="0" width="110" height="110"/></clipPath><clipPath id="clip4"><rect x="6" y="6" width="97" height="97"/></clipPath><clipPath id="clip5"><rect x="6" y="6" width="97" height="97"/></clipPath><clipPath id="clip6"><rect x="6" y="6" width="97" height="97"/></clipPath><clipPath id="clip7"><rect x="457" y="284" width="96" height="96"/></clipPath><clipPath id="clip8"><rect x="457" y="284" width="96" height="96"/></clipPath><clipPath id="clip9"><rect x="457" y="284" width="96" height="96"/></clipPath></defs><g clip-path="url(#clip1)" transform="translate(-454 -281)"><g clip-path="url(#clip2)" filter="url(#fx0)" transform="translate(453 280)"><g clip-path="url(#clip3)"><g clip-path="url(#clip4)"><g clip-path="url(#clip5)"><g clip-path="url(#clip6)"><path d="M26.8284 20.8284 20.8284 20.8284 20.8284 88.8284 88.8284 88.8284 88.8284 82.8284 26.8284 82.8284 26.8284 20.8284Z" fill="#2F5597"/><path d="M32.2654 71.5694 31.8284 71.5694 31.8284 77.5694 32.2654 77.5694C51.1654 77.5694 70.4924 73.9494 81.1714 31.1024L87.8284 32.8614 80.8284 20.8284 68.7924 27.8284 75.3704 29.5664C64.9184 71.5614 46.0644 71.5694 32.2654 71.5694Z" fill="#2F5597"/></g></g></g></g></g><g clip-path="url(#clip7)"><g clip-path="url(#clip8)"><g clip-path="url(#clip9)"><path d="M477 298 471 298 471 366 539 366 539 360 477 360 477 298Z" fill="#2F5597"/><path d="M482.437 348.741 482 348.741 482 354.741 482.437 354.741C501.337 354.741 520.664 351.121 531.343 308.274L538 310.033 531 298 518.964 305 525.542 306.738C515.09 348.733 496.236 348.741 482.437 348.741Z" fill="#2F5597"/></g></g></g></g></svg>