<svg width="108" height="108" xmlns="http://www.w3.org/2000/svg" xmlns:xlink="http://www.w3.org/1999/xlink" xml:space="preserve" overflow="hidden"><defs><filter id="fx0" x="-10%" y="-10%" width="120%" height="120%" filterUnits="userSpaceOnUse" primitiveUnits="userSpaceOnUse"><feComponentTransfer color-interpolation-filters="sRGB"><feFuncR type="discrete" tableValues="0 0"/><feFuncG type="discrete" tableValues="0 0"/><feFuncB type="discrete" tableValues="0 0"/><feFuncA type="linear" slope="0.4" intercept="0"/></feComponentTransfer><feGaussianBlur stdDeviation="1.77778 1.77778"/></filter><clipPath id="clip1"><rect x="27" y="281" width="108" height="108"/></clipPath><clipPath id="clip2"><rect x="25" y="1" width="60" height="107"/></clipPath><clipPath id="clip3"><rect x="0" y="0" width="110" height="110"/></clipPath><clipPath id="clip4"><rect x="6" y="6" width="97" height="97"/></clipPath><clipPath id="clip5"><rect x="6" y="6" width="97" height="97"/></clipPath><clipPath id="clip6"><rect x="6" y="6" width="97" height="97"/></clipPath><clipPath id="clip7"><rect x="30" y="284" width="96" height="96"/></clipPath><clipPath id="clip8"><rect x="30" y="284" width="96" height="96"/></clipPath><clipPath id="clip9"><rect x="30" y="284" width="96" height="96"/></clipPath></defs><g clip-path="url(#clip1)" transform="translate(-27 -281)"><g clip-path="url(#clip2)" filter="url(#fx0)" transform="translate(26 280)"><g clip-path="url(#clip3)"><g clip-path="url(#clip4)"><g clip-path="url(#clip5)"><g clip-path="url(#clip6)"><path d="M62.8284 17.8284C62.8284 22.2467 59.2467 25.8284 54.8284 25.8284 50.4101 25.8284 46.8284 22.2467 46.8284 17.8284 46.8284 13.4102 50.4101 9.82843 54.8284 9.82843 59.2467 9.82843 62.8284 13.4102 62.8284 17.8284Z" fill="#2F5597"/><path d="M76.6284 59.0284 71.0284 35.2284C70.8284 34.4284 70.4284 33.6284 69.8284 33.0284 67.4284 31.0284 64.6284 29.6284 61.4284 28.6284 59.2284 28.2284 57.0284 27.8284 54.8284 27.8284 52.6284 27.8284 50.4284 28.2284 48.2284 28.8284 45.0284 29.6284 42.2284 31.2284 39.8284 33.2284 39.2284 33.8284 38.8284 34.6284 38.6284 35.4284L33.0284 59.2284C33.0284 59.4284 32.8284 59.8284 32.8284 60.2284 32.8284 62.4284 34.6284 64.2284 36.8284 64.2284 38.6284 64.2284 40.2284 62.8284 40.6284 61.2284L44.8284 43.8284 44.8284 99.8284 52.8284 99.8284 52.8284 63.8284 56.8284 63.8284 56.8284 99.8284 64.8284 99.8284 64.8284 43.6284 69.0284 61.0284C69.4284 62.6284 71.0284 64.0284 72.8284 64.0284 75.0284 64.0284 76.8284 62.2284 76.8284 60.0284 76.8284 59.6284 76.6284 59.2284 76.6284 59.0284Z" fill="#2F5597"/></g></g></g></g></g><g clip-path="url(#clip7)"><g clip-path="url(#clip8)"><g clip-path="url(#clip9)"><path d="M86 295C86 299.418 82.4183 303 78 303 73.5817 303 70 299.418 70 295 70 290.582 73.5817 287 78 287 82.4183 287 86 290.582 86 295Z" fill="#2F5597"/><path d="M99.8 336.2 94.2 312.4C94 311.6 93.6 310.8 93 310.2 90.6 308.2 87.8 306.8 84.6 305.8 82.4 305.4 80.2 305 78 305 75.8 305 73.6 305.4 71.4 306 68.2 306.8 65.4 308.4 63 310.4 62.4 311 62 311.8 61.8 312.6L56.2 336.4C56.2 336.6 56 337 56 337.4 56 339.6 57.8 341.4 60 341.4 61.8 341.4 63.4 340 63.8 338.4L68 321 68 377 76 377 76 341 80 341 80 377 88 377 88 320.8 92.2 338.2C92.6 339.8 94.2 341.2 96 341.2 98.2 341.2 100 339.4 100 337.2 100 336.8 99.8 336.4 99.8 336.2Z" fill="#2F5597"/></g></g></g></g></svg>